<svg width="32" height="32" viewBox="0 0 32 32" fill="none" xmlns="http://www.w3.org/2000/svg">
<path fill-rule="evenodd" clip-rule="evenodd" d="M21.802 6C21.1584 6 20.5954 6 20.0233 6.16528C18.1615 6.70314 17.192 8.63169 16.1631 10.2325C16.0584 10.3956 16.0584 10.6073 16.1631 10.7704L19.2087 13.1753C19.3138 13.3387 19.3138 13.5498 19.2088 13.7131L16.1631 16.1182C16.0584 16.2812 16.0584 16.4929 16.1631 16.656L19.2087 19.061C19.3138 19.2244 19.3138 19.4354 19.2087 19.5987L16.1631 22.0042C16.0583 22.1672 16.0583 22.3789 16.1631 22.542L17.5309 24.6707C17.6215 24.8116 17.7718 24.8889 17.9256 24.8889C18.0056 24.8889 18.0867 24.868 18.1607 24.8241C19.7982 23.8553 22.1737 22.2832 24.192 20.2956C26.7188 17.8071 28 15.3398 28 12.962C28 9.12315 25.2196 6 21.802 6Z" fill="black"/>
<path fill-rule="evenodd" clip-rule="evenodd" d="M14.2783 22.919C14.1725 22.7519 14.1725 22.536 14.2783 22.369L17.3363 19.9087C17.4419 19.742 17.4419 19.5255 17.3363 19.3587L14.2783 16.8989C14.1725 16.7317 14.1725 16.5158 14.2783 16.3488L17.3363 13.8889C17.4419 13.7222 17.4419 13.5056 17.3363 13.3388L14.2783 10.879C14.1725 10.7119 14.1725 10.4961 14.2783 10.329L15.0471 9.11529C15.1597 8.9375 15.1515 8.70444 15.0268 8.5357C13.8359 6.92422 12.0939 6 10.2476 6C6.80264 6.0001 4 9.19444 4 13.1208C4 15.8808 5.64986 18.741 8.90378 21.6217C11.3923 23.825 14.0818 25.3782 15.1225 25.9438C15.1922 25.9817 15.2675 26 15.3422 26C15.4741 26 15.6039 25.9428 15.6967 25.835C15.842 25.6662 15.8597 25.4161 15.7398 25.2267L14.2783 22.919Z" fill="black"/>
</svg>
